# xmcd
#
# Track frame offsets:
#	150
#	10050
#	20137
#	29687
#	39912
#	49325
#	60587
#	75112
#	86112
#	95787
#	106925
#	119725
#	132487
#	144450
#	158100
#	169512
#
# Disc length: 2426 seconds
#
# Revision: 1
# Processed by: cddbd v1.5.1PL2 Copyright (c) Steve Scherf et al.
# Submitted via: audiograbber 1.83.01
#
DISCID=d3097810
DTITLE=Millennium Super-Hits 1950 - 1960 - CD 2
DYEAR=1960
DGENRE=Oldies
TTITLE0=Bill Haley and The Comets - Rock around the Clock
TTITLE1=Pat Boone - Love letters in the Sand
TTITLE2=Tony Benett - In the middle of an Island
TTITLE3=Everly Brothers - All I have to do is dream
TTITLE4=Doris Day - Que sera sera
TTITLE5=Marty Robins - A white Sport Coat
TTITLE6=Lonnie Donegan - Gamblin Man
TTITLE7=Guy Mitchel - Singing The Blue
TTITLE8=Chordettes - Lollipop
TTITLE9=Stonewell Jackson - Waterloo
TTITLE10=Four Lads - Standing on the Corner
TTITLE11=Johnny Horton - North to Alaska
TTITLE12=David McBeth - Mr. Blue
TTITLE13=Johnny Mathis - Chances are
TTITLE14=Patsy Cline - Walking After Midnight
TTITLE15=Mitch Miller - Children's Marching Song
EXTD=
EXTT0=
EXTT1=
EXTT2=
EXTT3=
EXTT4=
EXTT5=
EXTT6=
EXTT7=
EXTT8=
EXTT9=
EXTT10=
EXTT11=
EXTT12=
EXTT13=
EXTT14=
EXTT15=
PLAYORDER=
